<svg width="84" height="84" viewBox="0 0 84 84" fill="none" xmlns="http://www.w3.org/2000/svg">
<path d="M0 28C0 12.536 12.536 0 28 0H56C71.464 0 84 12.536 84 28V56C84 71.464 71.464 84 56 84H28C12.536 84 0 71.464 0 56V28Z" fill="url(#paint0_linear_407_301)"/>
<path d="M23 31C23 28.7909 24.7909 27 27 27H34C36.2091 27 38 28.7909 38 31V38C38 40.2091 36.2091 42 34 42H27C24.7909 42 23 40.2091 23 38V31Z" fill="#4D4F52"/>
<path d="M46 31C46 28.7909 47.7909 27 50 27H57C59.2091 27 61 28.7909 61 31V38C61 40.2091 59.2091 42 57 42H50C47.7909 42 46 40.2091 46 38V31Z" fill="#4D4F52"/>
<path d="M23 51C23 48.7909 24.7909 47 27 47H34C36.2091 47 38 48.7909 38 51V58C38 60.2091 36.2091 62 34 62H27C24.7909 62 23 60.2091 23 58V51Z" fill="#4D4F52"/>
<path d="M46 51C46 48.7909 47.7909 47 50 47H57C59.2091 47 61 48.7909 61 51V58C61 60.2091 59.2091 62 57 62H50C47.7909 62 46 60.2091 46 58V51Z" fill="#4D4F52"/>
<path d="M28 0.15H56C71.3811 0.15 83.85 12.6189 83.85 28V56C83.85 71.3811 71.3811 83.85 56 83.85H28C12.6189 83.85 0.15 71.3811 0.15 56V28C0.15 12.6189 12.6189 0.15 28 0.15ZM27 27.15H34C36.1263 27.15 37.85 28.8737 37.85 31V38C37.85 40.1263 36.1263 41.85 34 41.85H27C24.8737 41.85 23.15 40.1263 23.15 38V31C23.15 28.8737 24.8737 27.15 27 27.15ZM34 26.85H27C24.708 26.85 22.85 28.708 22.85 31V38C22.85 40.292 24.708 42.15 27 42.15H34C36.292 42.15 38.15 40.292 38.15 38V31C38.15 28.708 36.292 26.85 34 26.85ZM50 27.15H57C59.1263 27.15 60.85 28.8737 60.85 31V38C60.85 40.1263 59.1263 41.85 57 41.85H50C47.8737 41.85 46.15 40.1263 46.15 38V31C46.15 28.8737 47.8737 27.15 50 27.15ZM57 26.85H50C47.708 26.85 45.85 28.708 45.85 31V38C45.85 40.292 47.708 42.15 50 42.15H57C59.292 42.15 61.15 40.292 61.15 38V31C61.15 28.708 59.292 26.85 57 26.85ZM27 47.15H34C36.1263 47.15 37.85 48.8737 37.85 51V58C37.85 60.1263 36.1263 61.85 34 61.85H27C24.8737 61.85 23.15 60.1263 23.15 58V51C23.15 48.8737 24.8737 47.15 27 47.15ZM34 46.85H27C24.708 46.85 22.85 48.708 22.85 51V58C22.85 60.292 24.708 62.15 27 62.15H34C36.292 62.15 38.15 60.292 38.15 58V51C38.15 48.708 36.292 46.85 34 46.85ZM50 47.15H57C59.1263 47.15 60.85 48.8737 60.85 51V58C60.85 60.1263 59.1263 61.85 57 61.85H50C47.8737 61.85 46.15 60.1263 46.15 58V51C46.15 48.8737 47.8737 47.15 50 47.15ZM57 46.85H50C47.708 46.85 45.85 48.708 45.85 51V58C45.85 60.292 47.708 62.15 50 62.15H57C59.292 62.15 61.15 60.292 61.15 58V51C61.15 48.708 59.292 46.85 57 46.85Z" stroke="#696969" stroke-width="0.3"/>
<defs>
<linearGradient id="paint0_linear_407_301" x1="16.7222" y1="2.55837" x2="92.7452" y2="104.558" gradientUnits="userSpaceOnUse">
<stop stop-color="#232830"/>
<stop offset="1" stop-opacity="0"/>
<stop offset="1" stop-color="#D5D5D5" stop-opacity="0.754637"/>
</linearGradient>
</defs>
</svg>
