<svg width="10" height="10" viewBox="0 0 10 10" fill="none" xmlns="http://www.w3.org/2000/svg">
<path d="M6.64645 0.646447C6.84171 0.451184 7.15829 0.451184 7.35355 0.646447L9.35355 2.64645C9.54882 2.84171 9.54882 3.15829 9.35355 3.35355L2.85355 9.85355C2.75979 9.94732 2.63261 10 2.5 10H0.5C0.223858 10 0 9.77614 0 9.5V7.5C0 7.36739 0.0526784 7.24021 0.146447 7.14645L5.14634 2.14655L6.64645 0.646447ZM5.5 3.20711L1 7.70711V9H2.29289L6.79289 4.5L5.5 3.20711ZM7.5 3.79289L8.29289 3L7 1.70711L6.20711 2.5L7.5 3.79289Z" fill="white"/>
</svg>
