<svg width="195" height="84" viewBox="0 0 195 84" fill="none" xmlns="http://www.w3.org/2000/svg">
<rect x="0.5" y="0.5" width="194" height="83" rx="26.5" fill="url(#paint0_linear_414_305)" stroke="url(#paint1_linear_414_305)"/>
<path d="M45.728 55.252C44.072 55.252 42.584 54.964 41.264 54.388C39.968 53.788 38.948 52.972 38.204 51.94C37.46 50.884 37.076 49.672 37.052 48.304H40.544C40.664 49.48 41.144 50.476 41.984 51.292C42.848 52.084 44.096 52.48 45.728 52.48C47.288 52.48 48.512 52.096 49.4 51.328C50.312 50.536 50.768 49.528 50.768 48.304C50.768 47.344 50.504 46.564 49.976 45.964C49.448 45.364 48.788 44.908 47.996 44.596C47.204 44.284 46.136 43.948 44.792 43.588C43.136 43.156 41.804 42.724 40.796 42.292C39.812 41.86 38.96 41.188 38.24 40.276C37.544 39.34 37.196 38.092 37.196 36.532C37.196 35.164 37.544 33.952 38.24 32.896C38.936 31.84 39.908 31.024 41.156 30.448C42.428 29.872 43.88 29.584 45.512 29.584C47.864 29.584 49.784 30.172 51.272 31.348C52.784 32.524 53.636 34.084 53.828 36.028H50.228C50.108 35.068 49.604 34.228 48.716 33.508C47.828 32.764 46.652 32.392 45.188 32.392C43.82 32.392 42.704 32.752 41.84 33.472C40.976 34.168 40.544 35.152 40.544 36.424C40.544 37.336 40.796 38.08 41.3 38.656C41.828 39.232 42.464 39.676 43.208 39.988C43.976 40.276 45.044 40.612 46.412 40.996C48.068 41.452 49.4 41.908 50.408 42.364C51.416 42.796 52.28 43.48 53 44.416C53.72 45.328 54.08 46.576 54.08 48.16C54.08 49.384 53.756 50.536 53.108 51.616C52.46 52.696 51.5 53.572 50.228 54.244C48.956 54.916 47.456 55.252 45.728 55.252ZM76.3969 35.272V55H73.1209V52.084C72.4969 53.092 71.6209 53.884 70.4929 54.46C69.3889 55.012 68.1649 55.288 66.8209 55.288C65.2849 55.288 63.9049 54.976 62.6809 54.352C61.4569 53.704 60.4849 52.744 59.7649 51.472C59.0689 50.2 58.7209 48.652 58.7209 46.828V35.272H61.9609V46.396C61.9609 48.34 62.4529 49.84 63.4369 50.896C64.4209 51.928 65.7649 52.444 67.4689 52.444C69.2209 52.444 70.6009 51.904 71.6089 50.824C72.6169 49.744 73.1209 48.172 73.1209 46.108V35.272H76.3969ZM85.2043 38.944C85.8763 37.768 86.8603 36.808 88.1562 36.064C89.4523 35.32 90.9283 34.948 92.5843 34.948C94.3603 34.948 95.9563 35.368 97.3723 36.208C98.7883 37.048 99.9043 38.236 100.72 39.772C101.536 41.284 101.944 43.048 101.944 45.064C101.944 47.056 101.536 48.832 100.72 50.392C99.9043 51.952 98.7762 53.164 97.3362 54.028C95.9203 54.892 94.3363 55.324 92.5843 55.324C90.8803 55.324 89.3803 54.952 88.0843 54.208C86.8123 53.464 85.8523 52.516 85.2043 51.364V55H81.9283V28.36H85.2043V38.944ZM98.5963 45.064C98.5963 43.576 98.2963 42.28 97.6963 41.176C97.0963 40.072 96.2803 39.232 95.2483 38.656C94.2403 38.08 93.1243 37.792 91.9003 37.792C90.7003 37.792 89.5843 38.092 88.5523 38.692C87.5443 39.268 86.7283 40.12 86.1043 41.248C85.5043 42.352 85.2043 43.636 85.2043 45.1C85.2043 46.588 85.5043 47.896 86.1043 49.024C86.7283 50.128 87.5443 50.98 88.5523 51.58C89.5843 52.156 90.7003 52.444 91.9003 52.444C93.1243 52.444 94.2403 52.156 95.2483 51.58C96.2803 50.98 97.0963 50.128 97.6963 49.024C98.2963 47.896 98.5963 46.576 98.5963 45.064ZM129.98 34.912C131.516 34.912 132.884 35.236 134.084 35.884C135.284 36.508 136.232 37.456 136.928 38.728C137.624 40 137.972 41.548 137.972 43.372V55H134.732V43.84C134.732 41.872 134.24 40.372 133.256 39.34C132.296 38.284 130.988 37.756 129.332 37.756C127.628 37.756 126.272 38.308 125.264 39.412C124.256 40.492 123.752 42.064 123.752 44.128V55H120.512V43.84C120.512 41.872 120.02 40.372 119.036 39.34C118.076 38.284 116.768 37.756 115.112 37.756C113.408 37.756 112.052 38.308 111.044 39.412C110.036 40.492 109.532 42.064 109.532 44.128V55H106.256V35.272H109.532V38.116C110.18 37.084 111.044 36.292 112.124 35.74C113.228 35.188 114.44 34.912 115.76 34.912C117.416 34.912 118.88 35.284 120.152 36.028C121.424 36.772 122.372 37.864 122.996 39.304C123.548 37.912 124.46 36.832 125.732 36.064C127.004 35.296 128.42 34.912 129.98 34.912ZM145.038 32.068C144.414 32.068 143.886 31.852 143.454 31.42C143.022 30.988 142.806 30.46 142.806 29.836C142.806 29.212 143.022 28.684 143.454 28.252C143.886 27.82 144.414 27.604 145.038 27.604C145.638 27.604 146.142 27.82 146.55 28.252C146.982 28.684 147.198 29.212 147.198 29.836C147.198 30.46 146.982 30.988 146.55 31.42C146.142 31.852 145.638 32.068 145.038 32.068ZM146.622 35.272V55H143.346V35.272H146.622ZM156.202 37.972V49.6C156.202 50.56 156.406 51.244 156.814 51.652C157.222 52.036 157.93 52.228 158.938 52.228H161.35V55H158.398C156.574 55 155.206 54.58 154.294 53.74C153.382 52.9 152.926 51.52 152.926 49.6V37.972H150.37V35.272H152.926V30.304H156.202V35.272H161.35V37.972H156.202Z" fill="white"/>
<defs>
<linearGradient id="paint0_linear_414_305" x1="4.50001" y1="-3.00001" x2="198" y2="89.5" gradientUnits="userSpaceOnUse">
<stop stop-color="#20252D"/>
<stop offset="1" stop-color="#0C0F14"/>
</linearGradient>
<linearGradient id="paint1_linear_414_305" x1="6.5" y1="-1.25649e-06" x2="189.5" y2="84" gradientUnits="userSpaceOnUse">
<stop stop-color="white"/>
<stop offset="1" stop-color="#C6C6C6" stop-opacity="0"/>
</linearGradient>
</defs>
</svg>
